REM DIRINDEX 1\2,1\3,1\4,1\5\6,1\5\7,1\8
REM DIRNAME cjc115,folder01,folder02,folder03,folder04,folder05,folder06,folder07
TITLE ""
FILE "155 Åy155ÅzUnit9 (1753 want for Å`_1764 shake up).mp3" MP3
  TRACK 01 AUDIO
    TITLE "0:"
    INDEX 01 00:00:00
  TRACK 02 AUDIO
    TITLE "2:cjc115_6064"
    INDEX 01 00:00:05
  TRACK 03 AUDIO
    TITLE "0:"
    INDEX 01 00:01:36
  TRACK 04 AUDIO
    TITLE "3:cjc115_6065"
    INDEX 01 00:01:46
  TRACK 05 AUDIO
    TITLE "0:"
    INDEX 01 00:04:19
  TRACK 06 AUDIO
    TITLE "4:cjc115_6066"
    INDEX 01 00:04:23
  TRACK 07 AUDIO
    TITLE "0:"
    INDEX 01 00:09:06
  TRACK 08 AUDIO
    TITLE "2:cjc115_6067"
    INDEX 01 00:10:18
  TRACK 09 AUDIO
    TITLE "0:"
    INDEX 01 00:12:26
  TRACK 10 AUDIO
    TITLE "3:cjc115_6068"
    INDEX 01 00:12:32
  TRACK 11 AUDIO
    TITLE "0:"
    INDEX 01 00:15:07
  TRACK 12 AUDIO
    TITLE "4:cjc115_6069"
    INDEX 01 00:15:17
  TRACK 13 AUDIO
    TITLE "0:"
    INDEX 01 00:19:09
  TRACK 14 AUDIO
    TITLE "2:cjc115_6070"
    INDEX 01 00:20:20
  TRACK 15 AUDIO
    TITLE "0:"
    INDEX 01 00:21:37
  TRACK 16 AUDIO
    TITLE "3:cjc115_6071"
    INDEX 01 00:21:47
  TRACK 17 AUDIO
    TITLE "0:"
    INDEX 01 00:23:65
  TRACK 18 AUDIO
    TITLE "4:cjc115_6072"
    INDEX 01 00:23:71
  TRACK 19 AUDIO
    TITLE "0:"
    INDEX 01 00:27:06
  TRACK 20 AUDIO
    TITLE "2:cjc115_6073"
    INDEX 01 00:28:15
  TRACK 21 AUDIO
    TITLE "0:"
    INDEX 01 00:29:29
  TRACK 22 AUDIO
    TITLE "3:cjc115_6074"
    INDEX 01 00:29:50
  TRACK 23 AUDIO
    TITLE "0:"
    INDEX 01 00:31:04
  TRACK 24 AUDIO
    TITLE "4:cjc115_6075"
    INDEX 01 00:31:12
  TRACK 25 AUDIO
    TITLE "0:"
    INDEX 01 00:34:32
  TRACK 26 AUDIO
    TITLE "2:cjc115_6076"
    INDEX 01 00:35:41
  TRACK 27 AUDIO
    TITLE "0:"
    INDEX 01 00:36:70
  TRACK 28 AUDIO
    TITLE "3:cjc115_6077"
    INDEX 01 00:37:12
  TRACK 29 AUDIO
    TITLE "0:"
    INDEX 01 00:39:45
  TRACK 30 AUDIO
    TITLE "4:cjc115_6078"
    INDEX 01 00:39:51
  TRACK 31 AUDIO
    TITLE "0:"
    INDEX 01 00:43:15
  TRACK 32 AUDIO
    TITLE "2:cjc115_6079"
    INDEX 01 00:44:18
  TRACK 33 AUDIO
    TITLE "0:"
    INDEX 01 00:46:72
  TRACK 34 AUDIO
    TITLE "3:cjc115_6080"
    INDEX 01 00:47:05
  TRACK 35 AUDIO
    TITLE "0:"
    INDEX 01 00:48:61
  TRACK 36 AUDIO
    TITLE "4:cjc115_6081"
    INDEX 01 00:48:71
  TRACK 37 AUDIO
    TITLE "0:"
    INDEX 01 00:53:11
  TRACK 38 AUDIO
    TITLE "2:cjc115_6082"
    INDEX 01 00:54:21
  TRACK 39 AUDIO
    TITLE "0:"
    INDEX 01 00:55:53
  TRACK 40 AUDIO
    TITLE "3:cjc115_6083"
    INDEX 01 00:55:55
  TRACK 41 AUDIO
    TITLE "0:"
    INDEX 01 00:57:05
  TRACK 42 AUDIO
    TITLE "4:cjc115_6084"
    INDEX 01 00:57:09
  TRACK 43 AUDIO
    TITLE "0:"
    INDEX 01 01:02:18
  TRACK 44 AUDIO
    TITLE "2:cjc115_6085"
    INDEX 01 01:03:27
  TRACK 45 AUDIO
    TITLE "0:"
    INDEX 01 01:05:13
  TRACK 46 AUDIO
    TITLE "3:cjc115_6086"
    INDEX 01 01:05:22
  TRACK 47 AUDIO
    TITLE "0:"
    INDEX 01 01:08:19
  TRACK 48 AUDIO
    TITLE "4:cjc115_6087"
    INDEX 01 01:08:27
  TRACK 49 AUDIO
    TITLE "0:"
    INDEX 01 01:12:07
  TRACK 50 AUDIO
    TITLE "2:cjc115_6088"
    INDEX 01 01:13:18
  TRACK 51 AUDIO
    TITLE "0:"
    INDEX 01 01:14:41
  TRACK 52 AUDIO
    TITLE "3:cjc115_6089"
    INDEX 01 01:14:47
  TRACK 53 AUDIO
    TITLE "0:"
    INDEX 01 01:17:10
  TRACK 54 AUDIO
    TITLE "4:cjc115_6090"
    INDEX 01 01:17:18
  TRACK 55 AUDIO
    TITLE "0:"
    INDEX 01 01:21:06
  TRACK 56 AUDIO
    TITLE "2:cjc115_6091"
    INDEX 01 01:22:15
  TRACK 57 AUDIO
    TITLE "0:"
    INDEX 01 01:23:44
  TRACK 58 AUDIO
    TITLE "3:cjc115_6092"
    INDEX 01 01:23:56
  TRACK 59 AUDIO
    TITLE "0:"
    INDEX 01 01:25:08
  TRACK 60 AUDIO
    TITLE "4:cjc115_6093"
    INDEX 01 01:25:15
  TRACK 61 AUDIO
    TITLE "0:"
    INDEX 01 01:29:62
  TRACK 62 AUDIO
    TITLE "2:cjc115_6094"
    INDEX 01 01:30:69
  TRACK 63 AUDIO
    TITLE "0:"
    INDEX 01 01:32:41
  TRACK 64 AUDIO
    TITLE "3:cjc115_6095"
    INDEX 01 01:32:51
  TRACK 65 AUDIO
    TITLE "0:"
    INDEX 01 01:34:61
  TRACK 66 AUDIO
    TITLE "4:cjc115_6096"
    INDEX 01 01:34:69
  TRACK 67 AUDIO
    TITLE "0:"
    INDEX 01 01:39:02
  TRACK 68 AUDIO
    TITLE "2:cjc115_6097"
    INDEX 01 01:40:11
  TRACK 69 AUDIO
    TITLE "0:"
    INDEX 01 01:41:24
  TRACK 70 AUDIO
    TITLE "3:cjc115_6098"
    INDEX 01 01:41:46
  TRACK 71 AUDIO
    TITLE "0:"
    INDEX 01 01:43:17
  TRACK 72 AUDIO
    TITLE "4:cjc115_6099"
    INDEX 01 01:43:19
  TRACK 73 AUDIO
    TITLE "0:"
    INDEX 01 01:45:73
